<svg width="131" height="129" viewBox="0 0 131 129" fill="none" xmlns="http://www.w3.org/2000/svg">
<path d="M113.123 53.5C113.123 53.7925 113.002 54.141 112.713 54.5835C112.422 55.027 112.02 55.48 111.557 55.9872C111.516 56.0317 111.475 56.0766 111.433 56.1219C111.021 56.5721 110.568 57.0663 110.2 57.5711C109.796 58.1252 109.423 58.7838 109.329 59.53C109.236 60.273 109.429 61.0041 109.679 61.6439C109.906 62.2271 110.217 62.8223 110.501 63.3654C110.53 63.4202 110.558 63.4744 110.586 63.528C110.905 64.1393 111.178 64.683 111.346 65.1882C111.515 65.6932 111.544 66.0621 111.471 66.3434C111.4 66.62 111.198 66.9228 110.805 67.2751C110.412 67.6277 109.907 67.9616 109.328 68.331C109.271 68.3672 109.213 68.4038 109.155 68.4409C108.645 68.765 108.086 69.1199 107.606 69.5038C107.073 69.9299 106.54 70.4645 106.254 71.154C105.969 71.8425 105.966 72.6005 106.04 73.2832C106.107 73.9091 106.253 74.5714 106.386 75.1773C106.399 75.2362 106.412 75.2946 106.424 75.3524C106.573 76.0322 106.697 76.6371 106.73 77.1759C106.763 77.7164 106.696 78.0828 106.556 78.3325C106.42 78.5748 106.154 78.8102 105.686 79.0449C105.217 79.28 104.645 79.4676 103.99 79.6722C103.935 79.6893 103.879 79.7066 103.823 79.724C103.238 79.9057 102.595 80.1058 102.02 80.3593C101.391 80.6365 100.737 81.0218 100.284 81.6267C99.8347 82.2256 99.6385 82.958 99.5359 83.6392C99.4419 84.2637 99.4148 84.9406 99.3902 85.558C99.3878 85.6169 99.3855 85.6752 99.3831 85.7329C99.3548 86.4244 99.3215 87.034 99.2172 87.5562C99.1127 88.0794 98.9561 88.4083 98.7602 88.6082C98.5687 88.8038 98.2514 88.9608 97.7381 89.0654C97.2246 89.1701 96.6225 89.2027 95.9356 89.2298C95.877 89.2321 95.8177 89.2343 95.7578 89.2366C95.1462 89.2601 94.4734 89.2859 93.8527 89.38C93.1736 89.483 92.4414 89.6821 91.8446 90.1413C91.2473 90.601 90.8671 91.2592 90.5935 91.891C90.3428 92.4699 90.145 93.1177 89.9649 93.7072C89.9478 93.7634 89.9308 93.8191 89.9139 93.8741C89.7114 94.5346 89.5251 95.1131 89.2914 95.5882C89.0577 96.0634 88.8226 96.3366 88.581 96.4766C88.338 96.6175 87.9858 96.6857 87.4631 96.6534C86.9396 96.6212 86.3508 96.4969 85.6816 96.3455C85.6256 96.3328 85.5689 96.32 85.5118 96.307C84.9149 96.1713 84.258 96.022 83.6322 95.9522C82.9477 95.8758 82.1897 95.8789 81.4911 96.1634C80.7871 96.4501 80.2453 96.9857 79.8149 97.5265C79.4141 98.0301 79.0512 98.6164 78.7225 99.1474C78.6974 99.1879 78.6725 99.228 78.6479 99.2678C78.2841 99.8546 77.9587 100.366 77.6135 100.767C77.2683 101.167 76.9732 101.373 76.7056 101.448C76.4444 101.522 76.0959 101.499 75.6041 101.331C75.1112 101.162 74.5786 100.885 73.973 100.56C73.9243 100.534 73.8752 100.507 73.8256 100.48C73.2844 100.189 72.687 99.8669 72.0979 99.6326C71.4561 99.3772 70.7192 99.1807 69.9648 99.2809C69.2133 99.3808 68.5553 99.7575 68.0026 100.167C67.4958 100.543 67.0037 101.005 66.5578 101.423C66.5171 101.461 66.4767 101.499 66.4367 101.536C65.9377 102.004 65.4954 102.406 65.0618 102.696C64.6298 102.986 64.2924 103.104 64.0097 103.104C63.7275 103.104 63.3865 102.985 62.9482 102.692C62.5094 102.399 62.0609 101.994 61.5578 101.526C61.5156 101.486 61.473 101.447 61.43 101.406C60.982 100.989 60.4895 100.529 59.9857 100.156C59.4354 99.7494 58.778 99.3724 58.0307 99.2799C57.2888 99.188 56.5585 99.3855 55.9216 99.6377C55.3376 99.869 54.7419 100.185 54.1998 100.472C54.1479 100.5 54.0966 100.527 54.0458 100.554C53.4377 100.876 52.8996 101.151 52.4026 101.32C51.9046 101.49 51.5535 101.515 51.2957 101.445C51.0391 101.376 50.7456 101.177 50.3953 100.776C50.0465 100.376 49.7144 99.8632 49.346 99.2759C49.3144 99.2254 49.2824 99.1743 49.2501 99.1227C48.9227 98.5996 48.564 98.0265 48.175 97.5337C47.7505 96.996 47.2172 96.4565 46.5299 96.1673C45.8414 95.8776 45.0852 95.8756 44.4066 95.951C43.7862 96.02 43.1304 96.1677 42.5321 96.3024C42.4727 96.3158 42.4138 96.329 42.3556 96.3421C41.6828 96.4928 41.087 96.6173 40.5572 96.65C40.0267 96.6828 39.6703 96.6147 39.4278 96.4751C39.188 96.3372 38.9535 96.0661 38.7199 95.5914C38.4863 95.1169 38.3001 94.5384 38.0976 93.8773C38.0806 93.8218 38.0635 93.7657 38.0462 93.709C37.8663 93.1194 37.6686 92.4715 37.4181 91.8925C37.1445 91.2602 36.7644 90.6012 36.1668 90.1413C35.5714 89.6832 34.8429 89.4826 34.1658 89.3781C33.544 89.2821 32.8704 89.2551 32.2584 89.2305C32.2022 89.2283 32.1465 89.226 32.0913 89.2238C31.4071 89.1956 30.8067 89.1627 30.2927 89.0584C29.779 88.9542 29.4571 88.798 29.2604 88.6014C29.0656 88.4067 28.9088 88.0836 28.8045 87.5627C28.7004 87.0425 28.6682 86.4336 28.6414 85.741C28.6391 85.6819 28.6368 85.6222 28.6346 85.5619C28.6113 84.9448 28.5859 84.2676 28.4929 83.6429C28.3912 82.96 28.195 82.2248 27.7421 81.6245C27.2874 81.0217 26.6347 80.6368 26.0068 80.3595C25.4319 80.1056 24.7885 79.9053 24.2041 79.7234C24.1489 79.7062 24.0943 79.6892 24.0402 79.6723C23.3856 79.4678 22.8133 79.28 22.343 79.0445C21.8738 78.8096 21.6009 78.5722 21.4592 78.3248C21.3167 78.076 21.2485 77.7158 21.2808 77.1849C21.3132 76.6537 21.4378 76.0568 21.589 75.3809C21.6021 75.3226 21.6154 75.2636 21.6288 75.204C21.7641 74.6023 21.9127 73.942 21.9828 73.3137C22.0597 72.625 22.0581 71.8638 21.7774 71.1635C21.4945 70.4579 20.9647 69.9125 20.4281 69.4779C19.9307 69.0751 19.3519 68.7095 18.8275 68.3783C18.7853 68.3516 18.7435 68.3252 18.7021 68.299C18.121 67.9313 17.6151 67.6024 17.2192 67.2537C16.8241 66.9057 16.6199 66.6067 16.5453 66.3324C16.4715 66.0606 16.4967 65.7017 16.6644 65.2026C16.8324 64.7027 17.107 64.1634 17.4286 63.5526C17.4543 63.5039 17.4802 63.4547 17.5064 63.4051C17.7949 62.8585 18.1128 62.2563 18.344 61.6631C18.5958 61.0171 18.7881 60.2791 18.6895 59.5256C18.5912 58.7739 18.2196 58.1127 17.8135 57.5546C17.442 57.0442 16.9856 56.5476 16.5713 56.0967C16.5325 56.0545 16.494 56.0126 16.456 55.9712C15.9928 55.466 15.5927 55.0171 15.3039 54.577C15.0162 54.1387 14.8964 53.7927 14.8964 53.5C14.8964 53.2076 15.017 52.859 15.3067 52.4165C15.597 51.973 15.9991 51.52 16.4629 51.0128C16.5035 50.9683 16.5446 50.9235 16.5862 50.8781C16.9988 50.4279 17.4518 49.9337 17.8198 49.4289C18.2238 48.8748 18.5963 48.2162 18.6901 47.47C18.7835 46.727 18.59 45.9959 18.3406 45.3561C18.1132 44.7729 17.8021 44.1777 17.5183 43.6345C17.4897 43.5798 17.4613 43.5256 17.4334 43.472C17.1149 42.8608 16.8414 42.317 16.6729 41.8118C16.5045 41.3068 16.4756 40.9379 16.5483 40.6566C16.6195 40.3805 16.8212 40.0778 17.2147 39.7254C17.6085 39.3727 18.1147 39.0388 18.6951 38.6694C18.7519 38.6333 18.8096 38.5967 18.8679 38.5597C19.379 38.2355 19.9385 37.8806 20.4196 37.4966C20.9534 37.0706 21.4876 36.536 21.7735 35.8461C22.0589 35.157 22.061 34.3985 21.9864 33.7158C21.918 33.0896 21.7714 32.4271 21.6373 31.8212C21.6243 31.7623 21.6114 31.704 21.5987 31.6464C21.449 30.9665 21.3244 30.3617 21.2909 29.823C21.2572 29.2827 21.3241 28.9167 21.4635 28.6676C21.5993 28.4249 21.8659 28.1895 22.3328 27.955C22.8006 27.72 23.3723 27.5323 24.0278 27.3278C24.0838 27.3104 24.1404 27.2928 24.1977 27.275C24.7814 27.0936 25.4241 26.8939 25.9989 26.641C26.6285 26.364 27.2835 25.9797 27.7405 25.3776C28.1955 24.7782 28.3945 24.0446 28.4981 23.3619C28.5937 22.7322 28.62 22.0498 28.644 21.4287C28.6461 21.3739 28.6482 21.3196 28.6503 21.2658C28.6777 20.5737 28.7096 19.9643 28.8128 19.442C28.9162 18.9189 29.072 18.591 29.2672 18.3918C29.4589 18.196 29.776 18.0391 30.2882 17.9345C30.8008 17.8299 31.4015 17.7973 32.0869 17.7702C32.1453 17.7679 32.2044 17.7657 32.264 17.7634C32.8743 17.7399 33.5458 17.7141 34.1649 17.62C34.8425 17.5169 35.5733 17.3176 36.1685 16.8574C36.7631 16.3976 37.1418 15.7396 37.4147 15.1085C37.6641 14.5319 37.8616 13.8867 38.0415 13.2989C38.0593 13.2408 38.0769 13.1833 38.0943 13.1265C38.2972 12.4663 38.4842 11.8877 38.7185 11.4125C38.9528 10.9372 39.1885 10.6636 39.4304 10.5234C39.6733 10.3826 40.0259 10.3143 40.5495 10.3466C41.0737 10.3789 41.6633 10.5032 42.333 10.6545C42.3894 10.6673 42.4465 10.6803 42.5042 10.6934C43.101 10.8289 43.7576 10.978 44.3825 11.0478C45.0663 11.1242 45.8242 11.1213 46.5215 10.8362C47.2234 10.5492 47.7639 10.0134 48.1934 9.47322C48.5925 8.97122 48.9547 8.38691 49.2831 7.8571C49.309 7.81527 49.3347 7.77377 49.3602 7.73268C49.7244 7.14617 50.0505 6.63469 50.3964 6.23381C50.7423 5.83288 51.038 5.62724 51.3059 5.5519C51.5671 5.47844 51.9161 5.50126 52.4085 5.66954C52.9019 5.83815 53.4351 6.11483 54.0405 6.44021C54.0907 6.4672 54.1414 6.49455 54.1927 6.52218C54.7322 6.81294 55.3272 7.1336 55.9127 7.36715C56.5523 7.62225 57.2877 7.81965 58.0395 7.71898C58.7874 7.61883 59.4439 7.24159 59.9954 6.8328C60.4983 6.46002 60.9884 6.00244 61.4338 5.58667C61.4776 5.54571 61.5211 5.50515 61.5641 5.46513C62.0651 4.99849 62.5107 4.59556 62.9473 4.30495C63.3826 4.01522 63.7237 3.89637 64.0097 3.89637C64.2946 3.89637 64.6367 4.01579 65.0744 4.30781C65.5128 4.60031 65.9604 5.00563 66.4616 5.47353C66.5062 5.51514 66.5513 5.55733 66.5968 5.59994C67.0408 6.01544 67.5284 6.47173 68.0262 6.84208C68.5729 7.24887 69.2272 7.62709 69.9719 7.72001C70.711 7.81224 71.4407 7.61401 72.0763 7.36229C72.6579 7.13201 73.2526 6.81763 73.7949 6.53099C73.8486 6.50256 73.9019 6.47441 73.9546 6.44663C74.5644 6.12517 75.1052 5.84979 75.6044 5.68037C76.1051 5.5104 76.4579 5.48545 76.7158 5.5547C76.9724 5.62361 77.2658 5.82257 77.6161 6.224C77.9649 6.62368 78.297 7.13685 78.6654 7.72409C78.6971 7.77458 78.729 7.82569 78.7613 7.87728C79.0887 8.40036 79.4474 8.97355 79.8364 9.46627C80.2609 10.0041 80.7943 10.5435 81.4815 10.8327C82.17 11.1224 82.9262 11.1244 83.6048 11.049C84.2252 10.9801 84.881 10.8324 85.4791 10.6977C85.5386 10.6843 85.5976 10.671 85.6558 10.6579C86.3286 10.5072 86.9244 10.3827 87.4542 10.35C87.9847 10.3172 88.3411 10.3854 88.5836 10.5249C88.8234 10.6628 89.0579 10.9339 89.2915 11.4086C89.5251 11.8831 89.7113 12.4617 89.9138 13.1227C89.9308 13.1782 89.9479 13.2343 89.9652 13.2909C90.1451 13.8805 90.3428 14.5285 90.5934 15.1075C90.8669 15.7398 91.247 16.3988 91.8446 16.8587C92.4401 17.3169 93.1694 17.5175 93.8472 17.622C94.4698 17.7179 95.1445 17.7449 95.7578 17.7695C95.8142 17.7718 95.87 17.774 95.9252 17.7763C96.6108 17.8044 97.2132 17.8373 97.7294 17.9417C98.2453 18.046 98.5699 18.2027 98.7687 18.4003C98.9643 18.5947 99.1213 18.917 99.2251 19.437C99.3288 19.9566 99.3602 20.565 99.386 21.2577C99.3882 21.3163 99.3903 21.3755 99.3925 21.4354C99.4148 22.0528 99.4394 22.7311 99.5323 23.3567C99.6338 24.0404 99.8308 24.7767 100.287 25.3776C100.743 25.9789 101.396 26.3633 102.024 26.6406C102.598 26.8939 103.239 27.0939 103.822 27.2755C103.878 27.293 103.934 27.3104 103.989 27.3276C104.642 27.5321 105.213 27.7198 105.681 27.955C106.148 28.1896 106.419 28.4262 106.559 28.6727C106.701 28.9225 106.769 29.2835 106.736 29.8145C106.704 30.3457 106.581 30.9422 106.431 31.6178C106.418 31.6743 106.406 31.7314 106.393 31.7891C106.259 32.3922 106.111 33.0543 106.042 33.6849C105.967 34.3742 105.97 35.1348 106.25 35.8353C106.532 36.5427 107.061 37.0892 107.597 37.5248C108.095 37.9293 108.675 38.2957 109.2 38.6273C109.241 38.653 109.281 38.6786 109.321 38.7039C109.902 39.0713 110.406 39.3994 110.801 39.7474C111.196 40.0946 111.399 40.3931 111.474 40.6677C111.548 40.9394 111.523 41.2983 111.355 41.7974C111.187 42.2973 110.912 42.8366 110.591 43.4474C110.565 43.4962 110.539 43.5454 110.513 43.5951C110.224 44.1417 109.907 44.7438 109.675 45.3369C109.424 45.9829 109.231 46.721 109.33 47.4745C109.428 48.2261 109.8 48.8873 110.206 49.4454C110.577 49.9558 111.034 50.4524 111.448 50.9032C111.487 50.9455 111.525 50.9874 111.563 51.0289C112.027 51.534 112.427 51.983 112.716 52.423C113.003 52.8613 113.123 53.2073 113.123 53.5Z" fill="url(#paint0_linear_2392_668)" stroke="url(#paint1_linear_2392_668)" stroke-width="1.79274"/>
<g filter="url(#filter0_d_2392_668)">
<path d="M105.997 55.4537C105.997 78.3627 87.3515 96.9577 64.3218 96.9577C41.2922 96.9577 22.6466 78.3627 22.6466 55.4537C22.6466 32.5447 41.2922 13.9497 64.3218 13.9497C87.3515 13.9497 105.997 32.5447 105.997 55.4537Z" stroke="white" stroke-width="7.31297" stroke-miterlimit="2.7285"/>
<path d="M100.13 55.8757C100.13 75.7653 84.0959 91.8847 64.3218 91.8847C44.5478 91.8847 28.5135 75.7653 28.5135 55.8757C28.5135 35.9861 44.5478 19.8668 64.3218 19.8668C84.0959 19.8668 100.13 35.9861 100.13 55.8757Z" fill="url(#paint2_linear_2392_668)" stroke="white" stroke-width="0.914121"/>
</g>
<rect x="0.429352" y="60.1843" width="125.037" height="31.2475" rx="2.90111" transform="rotate(-16 0.429352 60.1843)" fill="white"/>
<path d="M12.6109 82.146L7.11947 62.9951L15.0727 60.7145L16.0113 63.9877L11.7619 65.2062L13.0133 69.5704L17.033 68.4178L17.9633 71.6622L13.9436 72.8149L16.3147 81.0839L12.6109 82.146ZM16.4825 60.3103L20.1863 59.2482L24.3687 73.8339C24.6898 74.9537 25.2072 75.4578 26.0399 75.2191C26.93 74.9638 27.0195 74.1924 26.7231 73.1588L22.5407 58.5731L26.2733 57.5028L30.3898 71.8588C31.3613 75.2468 30.2679 77.3936 26.8799 78.3651C23.5493 79.3202 21.587 78.1117 20.5908 74.6376L16.4825 60.3103ZM33.9486 76.0275L28.4572 56.8766L32.161 55.8145L36.7303 71.7497L41.353 70.4242L41.9592 73.7305L33.9486 76.0275ZM43.4258 73.3099L37.9344 54.1591L41.6382 53.097L46.2075 69.0321L50.8302 67.7066L51.4364 71.0129L43.4258 73.3099ZM58.4352 59.995L57.9758 60.1267L60.3634 68.4532L56.6883 69.507L51.1968 50.3561L55.9917 48.9812C59.2075 48.0591 61.19 49.0132 62.1533 52.3725L62.3509 53.0616C63.133 55.7892 62.2725 56.906 61.5551 57.5467C62.9257 57.7752 63.7182 58.4801 64.4921 61.179C65.019 63.0166 65.7889 65.8099 66.2493 66.7654L62.6891 67.7863C62.1837 66.999 61.4961 64.4929 60.7963 62.0523C60.1788 59.8989 59.8134 59.5998 58.4352 59.995ZM55.7322 52.194L57.173 57.2186L57.6324 57.0868C58.867 56.7328 59.2481 56.2196 58.7376 54.4394L58.4659 53.4919C58.1037 52.2286 57.6559 51.6423 56.3064 52.0293L55.7322 52.194ZM72.5549 52.3107L73.4852 55.5551L69.523 56.6913L71.0214 61.9169L75.644 60.5914L76.1355 63.9306L68.2684 66.1864L62.7769 47.0356L70.6153 44.7879L71.5539 48.0611L67.3906 49.2549L68.5927 53.4468L72.5549 52.3107ZM77.8858 63.4287L72.3943 44.2778L80.3476 41.9973L81.2861 45.2704L77.0367 46.4889L78.2882 50.8531L82.3078 49.7005L83.2382 52.945L79.2185 54.0976L81.5896 62.3666L77.8858 63.4287ZM81.7574 41.593L85.4612 40.531L89.6436 55.1166C89.9647 56.2364 90.4821 56.7406 91.3147 56.5018C92.2048 56.2466 92.2943 55.4752 91.998 54.4415L87.8156 39.8559L91.5481 38.7856L95.6646 53.1415C96.6361 56.5296 95.5427 58.6764 92.1547 59.6479C88.8241 60.6029 86.8618 59.3944 85.8656 55.9203L81.7574 41.593ZM102.583 56.347L99.2235 57.3102L93.732 38.1593L97.8091 36.9902C99.0872 39.1717 103.497 47.2911 103.908 48.0744L103.994 48.0497C103.061 45.5519 101.921 42.119 101.155 39.4488L100.25 36.2904L103.666 35.3107L109.158 54.4616L105.052 55.6389C104.131 53.9453 99.195 44.6407 98.899 44.042L98.7842 44.0749C99.5781 46.302 100.788 50.0877 101.652 53.1025L102.583 56.347ZM111.448 53.8048L105.957 34.6539L110.494 33.353C114.456 32.2169 116.324 33.6388 117.46 37.601L119.527 44.8078C120.473 48.1096 120.608 51.1784 116.243 52.4298L111.448 53.8048ZM110.517 36.5779L114.304 49.7854L115.022 49.5795C116.458 49.1679 116.416 48.1545 115.988 46.6615L113.526 38.0766C113.123 36.6697 112.584 35.9851 111.206 36.3803L110.517 36.5779Z" fill="black" fill-opacity="0.8"/>
<line x1="92.8621" y1="64.5194" x2="127.468" y2="54.5964" stroke="#FFBD24"/>
<line x1="1.86218" y1="61.2307" x2="56.6541" y2="45.5194" stroke="#FFBD24"/>
<defs>
<filter id="filter0_d_2392_668" x="1.62181" y="0.237866" width="129.057" height="128.714" filterUnits="userSpaceOnUse" color-interpolation-filters="sRGB">
<feFlood flood-opacity="0" result="BackgroundImageFix"/>
<feColorMatrix in="SourceAlpha" type="matrix" values="0 0 0 0 0 0 0 0 0 0 0 0 0 0 0 0 0 0 127 0" result="hardAlpha"/>
<feMorphology radius="4.57061" operator="dilate" in="SourceAlpha" result="effect1_dropShadow_2392_668"/>
<feOffset dx="1.82824" dy="9.14121"/>
<feGaussianBlur stdDeviation="7.31297"/>
<feComposite in2="hardAlpha" operator="out"/>
<feColorMatrix type="matrix" values="0 0 0 0 0 0 0 0 0 0 0 0 0 0 0 0 0 0 0.13 0"/>
<feBlend mode="normal" in2="BackgroundImageFix" result="effect1_dropShadow_2392_668"/>
<feBlend mode="normal" in="SourceGraphic" in2="effect1_dropShadow_2392_668" result="shape"/>
</filter>
<linearGradient id="paint0_linear_2392_668" x1="14" y1="53.5" x2="114.019" y2="53.5" gradientUnits="userSpaceOnUse">
<stop stop-color="#FF9359"/>
<stop offset="1" stop-color="#FFBD24"/>
</linearGradient>
<linearGradient id="paint1_linear_2392_668" x1="14" y1="53.5" x2="114.019" y2="53.5" gradientUnits="userSpaceOnUse">
<stop stop-color="#FF9359"/>
<stop offset="1" stop-color="#FFBD24"/>
</linearGradient>
<linearGradient id="paint2_linear_2392_668" x1="28.0565" y1="55.8757" x2="100.587" y2="55.8757" gradientUnits="userSpaceOnUse">
<stop stop-color="#FF9359"/>
<stop offset="1" stop-color="#FFBD24"/>
</linearGradient>
</defs>
</svg>
